<svg width="206" height="2" viewBox="0 0 206 2" fill="none" xmlns="http://www.w3.org/2000/svg">
<path d="M1 1L5.03162 1.00988M91.3083 1.22134L95.3399 1.23123M39.7036 1.09486L43.7352 1.10474M130.012 1.31621L134.043 1.32609M20.3518 1.04743L24.3834 1.05731M110.66 1.26877L114.692 1.27866M59.0553 1.14229L63.087 1.15217M149.364 1.36364L153.395 1.37352M7.45059 1.01581L11.4822 1.02569M97.7589 1.23715L101.791 1.24704M46.1541 1.11067L50.1858 1.12055M136.462 1.33202L140.494 1.3419M26.8024 1.06324L30.834 1.07312M117.111 1.28458L121.142 1.29447M65.5059 1.1581L69.5375 1.16798M155.814 1.37945L159.846 1.38933M13.9012 1.03162L17.9328 1.0415M104.209 1.25296L108.241 1.26285M52.6047 1.12648L56.6364 1.13636M142.913 1.34783L146.945 1.35771M33.253 1.07905L37.2846 1.08893M123.561 1.3004L127.593 1.31028M71.9565 1.17391L75.9881 1.18379M162.265 1.39526L166.296 1.40514M78.4071 1.18972L82.4387 1.1996M168.715 1.41107L172.747 1.42095M84.8577 1.20553L88.8893 1.21542M175.166 1.42688L179.198 1.43676M181.617 1.44269L185.648 1.45257M188.067 1.4585L192.099 1.46838M194.518 1.47431L198.549 1.48419M200.968 1.49012L205 1.5" stroke="black"/>
</svg>
