<svg width="95" height="87" viewBox="0 0 95 87" fill="none" xmlns="http://www.w3.org/2000/svg">
<mask id="mask0_2_18" style="mask-type:alpha" maskUnits="userSpaceOnUse" x="4" y="0" width="87" height="87">
<path d="M22.2958 53.5948C21.8698 54.213 22.0255 55.0595 22.6436 55.4855C23.2618 55.9115 24.1084 55.7559 24.5344 55.1377C24.5434 55.1248 24.552 55.1115 24.5605 55.0983C29.2857 47.9462 37.2858 43.6441 45.8578 43.6455C46.6086 43.6455 47.2172 43.0369 47.2172 42.2861C47.2172 41.5354 46.6086 40.9268 45.8578 40.9268C36.3747 40.9244 27.5238 45.683 22.2958 53.5948Z" fill="black"/>
<path d="M89.6406 70.833H81.4844V69.1909C81.516 60.384 77.9245 51.9518 71.5528 45.8722C71.0248 45.3383 70.1642 45.3335 69.6303 45.8613C69.0964 46.3892 69.0916 47.2499 69.6194 47.7838C69.6354 47.7999 69.6517 47.8157 69.6685 47.831C75.5045 53.4002 78.794 61.124 78.7655 69.1909V70.833H16.2344V69.1909C16.2524 52.8378 29.5048 39.5854 45.8579 39.5674H49.1421C51.6673 39.5657 54.1824 39.8855 56.6268 40.5189C57.3461 40.7342 58.1036 40.3257 58.3189 39.6065C58.5342 38.8872 58.1257 38.1297 57.4064 37.9144C57.3735 37.9045 57.34 37.8959 57.3064 37.8886C55.4289 37.4043 53.5117 37.0899 51.578 36.9492V32.7705C51.578 32.0198 50.9693 31.4111 50.2186 31.4111H44.7811C44.0304 31.4111 43.4217 32.0198 43.4217 32.7705V36.9492C26.5643 38.2403 13.5377 52.284 13.5155 69.1909V70.833H5.35938C4.60866 70.833 4 71.4417 4 72.1924C4 72.9431 4.60866 73.5518 5.35938 73.5518H89.6406C90.3913 73.5518 91 72.9431 91 72.1924C91 71.4417 90.3913 70.833 89.6406 70.833ZM46.1406 34.1299H48.8594V36.8486H46.1406V34.1299Z" fill="black"/>
<path d="M61.5478 30.382C62.8134 31.5116 63.8125 32.4034 63.8125 34.2236C63.8125 36.0438 62.8134 36.9355 61.5478 38.072C59.6239 39.4164 58.4477 41.5904 58.375 43.9363C58.375 44.687 58.9837 45.2957 59.7344 45.2957C60.4851 45.2957 61.0938 44.687 61.0938 43.9363C61.0938 42.1161 62.0929 41.2244 63.3585 40.0947C65.2835 38.7483 66.4597 36.5717 66.5312 34.2236C66.4597 31.8758 65.2835 29.6997 63.3585 28.3538C62.0929 27.2241 61.0938 26.3324 61.0938 24.5136C61.0938 22.6947 62.0929 21.8043 63.3585 20.6747C65.2835 19.3301 66.4599 17.1547 66.5312 14.8076C66.5312 14.0569 65.9226 13.4482 65.1719 13.4482C64.4212 13.4482 63.8125 14.0569 63.8125 14.8076C63.8125 16.6251 62.8134 17.5155 61.5478 18.6451C59.6224 19.9902 58.446 22.1661 58.375 24.5136C58.4467 26.8609 59.6229 29.0365 61.5478 30.382Z" fill="black"/>
<path d="M69.704 30.382C70.9696 31.5116 71.9688 32.4034 71.9688 34.2236C71.9688 36.0438 70.9696 36.9423 69.704 38.0665C67.7786 39.4121 66.6023 41.5883 66.5312 43.9363C66.5312 44.687 67.1399 45.2957 67.8906 45.2957C68.6413 45.2957 69.25 44.687 69.25 43.9363C69.25 42.1161 70.2491 41.2244 71.5147 40.0947C73.4398 38.7483 74.616 36.5717 74.6875 34.2236C74.616 31.8758 73.4398 29.6997 71.5147 28.3538C70.2491 27.2241 69.25 26.3324 69.25 24.5136C69.25 22.6947 70.2491 21.8043 71.5147 20.6747C73.4398 19.3301 74.6161 17.1547 74.6875 14.8076C74.6875 14.0569 74.0788 13.4482 73.3281 13.4482C72.5774 13.4482 71.9688 14.0569 71.9688 14.8076C71.9688 16.6251 70.9696 17.5155 69.704 18.6451C67.7786 19.9902 66.6023 22.1661 66.5312 24.5136C66.603 26.8609 67.7792 29.0365 69.704 30.382Z" fill="black"/>
<path d="M77.8603 30.382C79.1259 31.5116 80.125 32.4034 80.125 34.2236C80.125 36.0438 79.1259 36.9423 77.8603 38.0665C75.9349 39.4121 74.7585 41.5883 74.6875 43.9363C74.6875 44.687 75.2962 45.2957 76.0469 45.2957C76.7976 45.2957 77.4062 44.687 77.4062 43.9363C77.4062 42.1161 78.4054 41.2244 79.671 40.0947C81.596 38.7483 82.7722 36.5717 82.8438 34.2236C82.7722 31.8758 81.596 29.6997 79.671 28.3538C78.4054 27.2241 77.4062 26.3324 77.4062 24.5136C77.4062 22.6947 78.4054 21.8043 79.671 20.6747C81.596 19.3301 82.7724 17.1547 82.8438 14.8076C82.8438 14.0569 82.2351 13.4482 81.4844 13.4482C80.7337 13.4482 80.125 14.0569 80.125 14.8076C80.125 16.6251 79.1259 17.5155 77.8603 18.6451C75.9349 19.9902 74.7585 22.1661 74.6875 24.5136C74.7592 26.8609 75.9354 29.0365 77.8603 30.382Z" fill="black"/>
</mask>
<g mask="url(#mask0_2_18)">
<rect x="-12" y="-13" width="126" height="104" fill="#BC9060"/>
</g>
</svg>
